# xmcd
#
# Track frame offsets: 
#        150
#        18942
#        43402
#        68752
#        87642
#        100535
#        123625
#        140522
#        156505
#        177097
#        192425
#        203440
#
# Disc length: 2953 seconds
#
# Revision: 5
# Processed by: cddbd v1.4PL0 Copyright (c) Steve Scherf et al.
# Submitted via: ExactAudioCopy v0.90b3
#
DISCID=a70b870c
DTITLE=Michael Martin Murphey - The Best Of Michael Martin Murphey
DYEAR=1995
DGENRE=Country
TTITLE0=Carolina In The Pines
TTITLE1=Geronimo's Cadillac
TTITLE2=Cherokee Fiddle
TTITLE3=Still Taking Chances
TTITLE4=What's Forever For
TTITLE5=Wildfire
TTITLE6=What She Wants
TTITLE7=Love Affairs
TTITLE8=Disenchanted
TTITLE9=Don't Count The Rainy Days
TTITLE10=Will It Be Love By Morning
TTITLE11=Radio Land
EXTD=
EXTT0=
EXTT1=
EXTT2=
EXTT3=
EXTT4=
EXTT5=
EXTT6=
EXTT7=
EXTT8=
EXTT9=
EXTT10=
EXTT11=
PLAYORDER=
